<?xml version="1.0" standalone="no"?><!DOCTYPE svg PUBLIC "-//W3C//DTD SVG 1.1//EN" "http://www.w3.org/Graphics/SVG/1.1/DTD/svg11.dtd"><svg t="1719642024562" class="icon" viewBox="0 0 1024 1024" version="1.1" xmlns="http://www.w3.org/2000/svg" p-id="3733" xmlns:xlink="http://www.w3.org/1999/xlink" width="200" height="200"><path d="M715.2 192.8L872 278.4l-40.8 71.2-32-18.4-96-54.4v553.6h-384V282.4l-94.4 52-31.2 17.6-40.8-72 158.4-86.4c38.4 60.8 115.2 100 201.6 100 86.4-1.6 163.2-40 202.4-100.8m16-64h-46.4c-6.4 0-12.8 4-15.2 10.4-19.2 51.2-82.4 89.6-156.8 89.6-75.2 0-137.6-37.6-156.8-89.6-2.4-6.4-8-10.4-15.2-10.4h-46.4l-216 117.6c-8 4-10.4 14.4-6.4 21.6L160.8 424c3.2 4.8 8 8 13.6 8 2.4 0 5.6-0.8 8-1.6l72.8-40v472.8c0 17.6 14.4 32 32 32h448c17.6 0 32-14.4 32-32V388l73.6 41.6c2.4 1.6 5.6 2.4 8 2.4 5.6 0 11.2-3.2 13.6-8L952 268c4-8 1.6-17.6-5.6-21.6L731.2 128.8z" p-id="3734"></path></svg>