<?xml version="1.0" standalone="no"?><!DOCTYPE svg PUBLIC "-//W3C//DTD SVG 1.1//EN" "http://www.w3.org/Graphics/SVG/1.1/DTD/svg11.dtd"><svg t="1719910905701" class="icon" viewBox="0 0 1024 1024" version="1.1" xmlns="http://www.w3.org/2000/svg" p-id="6803" xmlns:xlink="http://www.w3.org/1999/xlink" width="200" height="200"><path d="M768 128a128 128 0 1 1 0 256h-128a128 128 0 0 1-120.704-85.333333H469.333333c-46.933333 0-85.333333 38.4-85.333333 85.333333v7.296a128 128 0 0 1 0 241.408V640c0 46.933333 38.4 85.333333 85.333333 85.333333h49.92A128.128 128.128 0 0 1 640 640h128a128 128 0 1 1 0 256h-128a128 128 0 0 1-120.704-85.333333H469.333333c-94.293333 0-170.666667-76.373333-170.666666-170.666667H213.333333a128 128 0 1 1 0-256h85.333334c0-94.293333 76.373333-170.666667 170.666666-170.666667h49.92A128.128 128.128 0 0 1 640 128h128z m0 597.333333h-128a42.666667 42.666667 0 0 0 0 85.333334h128a42.666667 42.666667 0 0 0 0-85.333334zM341.333333 469.333333H213.333333a42.666667 42.666667 0 0 0 0 85.333334h128a42.666667 42.666667 0 0 0 0-85.333334z m426.666667-256h-128a42.666667 42.666667 0 0 0 0 85.333334h128a42.666667 42.666667 0 0 0 0-85.333334z" fill="#19BC9B" p-id="6804"></path></svg>