<?xml version="1.0" standalone="no"?><!DOCTYPE svg PUBLIC "-//W3C//DTD SVG 1.1//EN" "http://www.w3.org/Graphics/SVG/1.1/DTD/svg11.dtd"><svg t="1719231846901" class="icon" viewBox="0 0 1024 1024" version="1.1" xmlns="http://www.w3.org/2000/svg" p-id="1100" xmlns:xlink="http://www.w3.org/1999/xlink" width="200" height="200"><path d="M101.01 387.1c20.62 0 37.34-16.72 37.34-37.34v-89.07c0-67.13 54.62-121.75 121.75-121.75h90.46c20.62 0 37.34-16.72 37.34-37.34s-16.72-37.34-37.34-37.34H260.1c-108.31 0-196.42 88.12-196.42 196.42v89.07c-0.01 20.63 16.7 37.35 37.33 37.35zM762.17 63.57H673.1c-20.62 0-37.34 16.72-37.34 37.34s16.72 37.34 37.34 37.34h89.07c67.13 0 121.75 54.62 121.75 121.75v90.46c0 20.62 16.72 37.34 37.34 37.34s37.34-16.72 37.34-37.34V260c-0.01-108.31-88.13-196.43-196.43-196.43zM921.25 636.53c-20.62 0-37.34 16.72-37.34 37.34v89.07c0 67.13-54.62 121.75-121.75 121.75H671.7c-20.62 0-37.34 16.72-37.34 37.34s16.72 37.34 37.34 37.34h90.46c108.31 0 196.42-88.12 196.42-196.42v-89.07c0.01-20.63-16.71-37.35-37.33-37.35zM349.16 885.38h-89.07c-67.13 0-121.75-54.62-121.75-121.75v-90.46c0-20.62-16.72-37.34-37.34-37.34s-37.34 16.72-37.34 37.34v90.46c0 108.31 88.12 196.42 196.42 196.42h89.07c20.62 0 37.34-16.72 37.34-37.34s-16.7-37.33-37.33-37.33zM729.48 387.79c20.62 0 37.34-16.72 37.34-37.34s-16.72-37.34-37.34-37.34H277.47c-20.62 0-37.34 16.72-37.34 37.34s16.72 37.34 37.34 37.34h188.67v399.64c0 20.62 16.72 37.34 37.34 37.34s37.34-16.72 37.34-37.34V387.79h188.66z" fill="#343434" p-id="1101"></path></svg>