<?xml version="1.0" standalone="no"?><!DOCTYPE svg PUBLIC "-//W3C//DTD SVG 1.1//EN" "http://www.w3.org/Graphics/SVG/1.1/DTD/svg11.dtd"><svg t="1719232119745" class="icon" viewBox="0 0 1024 1024" version="1.1" xmlns="http://www.w3.org/2000/svg" p-id="3789" xmlns:xlink="http://www.w3.org/1999/xlink" width="200" height="200"><path d="M820.244898 459.755102H203.755102V177.632653c0-45.97551 37.616327-83.591837 83.591837-83.591837h449.306122c45.97551 0 83.591837 37.616327 83.591837 83.591837v282.122449zM245.55102 417.959184h532.89796V177.632653c0-22.987755-18.808163-41.795918-41.795919-41.795918H287.346939c-22.987755 0-41.795918 18.808163-41.795919 41.795918v240.326531zM736.653061 929.959184H287.346939c-45.97551 0-83.591837-37.616327-83.591837-83.591837v-114.938776h616.489796v114.938776c0 45.97551-37.616327 83.591837-83.591837 83.591837z m-491.102041-156.734694v73.142857c0 22.987755 18.808163 41.795918 41.795919 41.795918h449.306122c22.987755 0 41.795918-18.808163 41.795919-41.795918v-73.142857H245.55102z" fill="#333333" p-id="3790"></path><path d="M846.367347 773.22449H177.632653c-45.97551 0-83.591837-37.616327-83.591837-83.591837V501.55102c0-45.97551 37.616327-83.591837 83.591837-83.591836h668.734694c45.97551 0 83.591837 37.616327 83.591837 83.591836v188.081633c0 45.97551-37.616327 83.591837-83.591837 83.591837zM177.632653 459.755102c-22.987755 0-41.795918 18.808163-41.795918 41.795918v188.081633c0 22.987755 18.808163 41.795918 41.795918 41.795918h668.734694c22.987755 0 41.795918-18.808163 41.795918-41.795918V501.55102c0-22.987755-18.808163-41.795918-41.795918-41.795918H177.632653zM694.857143 351.608163H329.142857c-11.493878 0-20.897959-9.404082-20.897959-20.897959s9.404082-20.897959 20.897959-20.897959h365.714286c11.493878 0 20.897959 9.404082 20.897959 20.897959s-9.404082 20.897959-20.897959 20.897959zM694.857143 243.983673H329.142857c-11.493878 0-20.897959-9.404082-20.897959-20.897959s9.404082-20.897959 20.897959-20.897959h365.714286c11.493878 0 20.897959 9.404082 20.897959 20.897959s-9.404082 20.897959-20.897959 20.897959z" fill="#333333" p-id="3791"></path><path d="M427.885714 574.171429c0 7.836735-2.089796 15.15102-5.746938 21.420408-3.657143 6.269388-8.881633 10.971429-16.195919 14.628571-6.791837 3.657143-15.15102 5.22449-24.555102 5.22449h-23.510204v54.857143H344.816327v-136.359184h35.52653c14.628571 0 26.122449 3.657143 34.481633 10.44898 8.881633 7.314286 13.061224 17.240816 13.061224 29.779592z m-13.061224 0c0-9.404082-3.134694-16.718367-8.881633-21.942858s-14.628571-7.836735-26.644898-7.836734h-20.897959v61.12653h21.942857c10.971429 0 19.330612-2.612245 25.6-7.836734 5.746939-5.746939 8.881633-13.583673 8.881633-23.510204z" fill="#333333" p-id="3792"></path><path d="M358.4 675.526531h-13.061224c-3.134694 0-5.22449-2.089796-5.22449-5.22449v-136.359184c0-3.134694 2.089796-5.22449 5.22449-5.22449h35.52653c16.195918 0 28.734694 4.179592 38.138776 12.016327 9.404082 8.359184 14.106122 19.330612 14.106122 33.436735 0 8.881633-2.089796 17.240816-6.269388 24.032653-4.179592 7.314286-10.44898 12.538776-18.285714 16.718367-7.836735 3.657143-16.718367 5.746939-27.167347 5.746939h-18.285714v49.632653c0.522449 3.134694-1.567347 5.22449-4.702041 5.22449z m-7.836735-10.44898h2.612245v-49.632653c0-2.612245 2.089796-4.702041 4.179592-5.22449-2.612245-0.522449-4.179592-2.612245-4.179592-5.22449v-61.12653c0-3.134694 2.089796-5.22449 5.22449-5.22449h20.897959c13.061224 0 22.987755 3.134694 29.779592 9.404082 6.791837 6.269388 10.44898 15.15102 10.44898 26.122449 0 11.493878-3.657143 20.37551-10.44898 26.644898-5.22449 4.702041-12.538776 7.836735-20.897959 8.881632 5.746939-0.522449 11.493878-2.089796 15.673469-4.179592 6.269388-3.134694 10.44898-7.314286 13.583674-12.538775 3.134694-5.746939 4.702041-11.493878 4.702041-18.808163 0-10.971429-3.657143-19.330612-10.44898-25.6-7.314286-6.269388-17.763265-9.404082-31.346939-9.404082H350.040816v125.910204z m13.061225-64.783673h16.718367c9.404082 0 17.240816-2.089796 21.942857-6.791837 4.702041-4.179592 7.314286-10.44898 7.314286-18.808163 0-7.836735-2.089796-14.106122-7.314286-18.285715-4.702041-4.179592-12.538776-6.791837-22.987755-6.791836h-15.673469v50.677551zM569.469388 600.816327c0 14.106122-2.612245 26.644898-7.836735 37.093877s-13.061224 18.808163-22.987755 24.032653c-9.926531 5.746939-21.420408 8.359184-33.959184 8.359184h-42.318367v-136.359184h37.616326c22.465306 0 39.706122 5.746939 51.722449 17.240816 12.016327 10.971429 17.763265 27.689796 17.763266 49.632654z m-13.061225 0c0-37.093878-18.808163-55.902041-56.946939-55.902041h-24.555102v114.416326h27.689796c16.718367 0 29.779592-5.22449 39.183674-15.673469 9.926531-9.926531 14.628571-24.555102 14.628571-42.840816z" fill="#333333" p-id="3793"></path><path d="M504.685714 675.526531h-42.318367c-3.134694 0-5.22449-2.089796-5.22449-5.22449v-136.359184c0-3.134694 2.089796-5.22449 5.22449-5.22449h37.616326c24.032653 0 42.840816 6.269388 55.379592 18.285715 13.061224 12.538776 19.330612 30.302041 19.330613 53.289796 0 15.15102-3.134694 28.212245-8.359184 39.706122-5.746939 11.493878-14.106122 20.37551-25.077551 26.644898-10.44898 5.746939-22.987755 8.881633-36.571429 8.881633z m-37.093877-10.44898h37.093877c12.016327 0 22.465306-2.612245 31.869388-7.836735 8.881633-5.22449 15.673469-12.538776 20.37551-21.942857 4.702041-9.926531 7.314286-21.420408 7.314286-35.004081 0-20.37551-5.22449-35.526531-16.195918-45.975511-10.971429-10.44898-27.167347-15.673469-48.065307-15.673469h-32.391836v126.432653z m35.52653-0.522449H475.428571c-3.134694 0-5.22449-2.089796-5.224489-5.22449v-114.416326c0-3.134694 2.089796-5.22449 5.224489-5.22449h24.555102c40.75102 0 62.171429 20.897959 62.171429 61.126531 0 19.853061-5.22449 35.526531-15.673469 47.020408-10.971429 10.971429-25.6 16.718367-43.363266 16.718367z m-22.987755-10.44898h22.465306c15.15102 0 26.644898-4.702041 35.526531-13.583673 8.359184-9.404082 13.061224-22.465306 13.061224-39.706122 0-34.481633-16.195918-50.677551-51.722449-50.677551h-19.330612v103.967346z" fill="#333333" p-id="3794"></path><path d="M606.563265 670.302041v-136.359184h72.097959v10.971429h-59.036734v50.155102h54.857143v10.971428h-54.857143v64.783674h-13.061225z" fill="#333333" p-id="3795"></path><path d="M619.62449 675.526531h-13.061225c-3.134694 0-5.22449-2.089796-5.224489-5.22449v-136.359184c0-3.134694 2.089796-5.22449 5.224489-5.22449h72.097959c3.134694 0 5.22449 2.089796 5.22449 5.22449v10.971429c0 3.134694-2.089796 5.22449-5.22449 5.22449h-53.812244v39.706122h49.632653c3.134694 0 5.22449 2.089796 5.224489 5.22449v10.971428c0 3.134694-2.089796 5.22449-5.224489 5.22449h-49.632653v59.559184c0 2.612245-2.612245 4.702041-5.22449 4.702041z m-7.836735-10.44898h2.612245v-59.559184c0-3.134694 2.089796-5.22449 5.22449-5.224489h49.632653v-0.522449h-49.632653c-3.134694 0-5.22449-2.089796-5.22449-5.22449v-50.155102c0-3.134694 2.089796-5.22449 5.22449-5.22449h53.812245v-0.522449h-61.64898v126.432653z" fill="#333333" p-id="3796"></path></svg>