<?xml version="1.0" standalone="no"?><!DOCTYPE svg PUBLIC "-//W3C//DTD SVG 1.1//EN" "http://www.w3.org/Graphics/SVG/1.1/DTD/svg11.dtd"><svg t="1719910728306" class="icon" viewBox="0 0 1024 1024" version="1.1" xmlns="http://www.w3.org/2000/svg" p-id="2221" xmlns:xlink="http://www.w3.org/1999/xlink" width="200" height="200"><path d="M478.08 192.192a58.88 58.88 0 0 1 46.208 23.168c23.104 32.064 21.312 99.84-8.832 199.68A536.832 536.832 0 0 0 625.664 557.44c37.312-7.04 74.688-12.416 112-12.416 83.52 1.792 96 41.024 94.144 64.128 0 60.544-58.688 60.544-88.896 60.544v0.064a226.048 226.048 0 0 1-131.52-53.504c-72.832 16-142.144 39.168-211.456 67.712C344.96 782.08 293.312 832 248.96 832c-8.96 0-19.584-1.792-26.752-7.168A52.48 52.48 0 0 1 192 776.704c0-16 3.52-60.608 172.352-133.568a1267.776 1267.776 0 0 0 94.208-221.056c-21.312-42.752-67.584-147.84-35.584-201.344 10.688-19.648 32-30.272 55.168-28.544z m-118.4 475.84c-42.688 20.736-95.232 58.368-90.112 82.368 3.392 16 21.888 10.56 55.424-16.384 21.056-27.072 24.512-41.088 34.688-65.984z m386.304-79.808c-17.152 0-32.384 0-49.536 7.68 19.072 19.2 29.504 28.608 48.64 32.448 13.312 3.84 39.104 10.752 46.72-9.28 7.68-19.968-7.616-30.848-45.824-30.848zM494.08 492.8a2572.16 2572.16 0 0 1-46.592 104.704l104.704-34.88c-21.76-22.272-41.344-43.392-58.112-69.824z m-16.64-223.488c-10.496 1.664-16.192 15.04-18.88 24.512-5.504 27.008 8.96 57.088 27.072 78.528 14.912-22.528 18.688-43.328 12.928-73.92-6.976-20.48-14.016-30.208-21.12-29.12z" fill="#FF7960" p-id="2222"></path></svg>