<?xml version="1.0" standalone="no"?><!DOCTYPE svg PUBLIC "-//W3C//DTD SVG 1.1//EN" "http://www.w3.org/Graphics/SVG/1.1/DTD/svg11.dtd"><svg t="1719910707802" class="icon" viewBox="0 0 1024 1024" version="1.1" xmlns="http://www.w3.org/2000/svg" p-id="2072" xmlns:xlink="http://www.w3.org/1999/xlink" width="200" height="200"><path d="M670.4 694.656L512 536.256l-158.4 158.4a31.936 31.936 0 0 1-25.344 9.216l-2.56-0.384a32 32 0 0 1-37.76-31.488l0.064-320a32 32 0 0 1 64 0l-0.064 253.76 137.408-137.408a32 32 0 0 1 40.832-3.712l4.48 3.712L672 605.76V352a32 32 0 1 1 64 0v320a32 32 0 0 1-32 32l-5.76-0.512-2.496 0.384a31.936 31.936 0 0 1-25.344-9.216z" fill="#FF7960" p-id="2073"></path></svg>