<?xml version="1.0" standalone="no"?><!DOCTYPE svg PUBLIC "-//W3C//DTD SVG 1.1//EN" "http://www.w3.org/Graphics/SVG/1.1/DTD/svg11.dtd"><svg t="1719232541638" class="icon" viewBox="0 0 1024 1024" version="1.1" xmlns="http://www.w3.org/2000/svg" p-id="6862" xmlns:xlink="http://www.w3.org/1999/xlink" width="200" height="200"><path d="M930.6672 228.010394L796.091945 93.3328c-16.271837-16.271837-37.865281-25.175295-60.789127-25.175295-23.026184 0-44.619628 8.903458-60.789126 25.175295L110.8327 656.911453c-5.321607 5.321607-8.801119 12.280632-9.824505 19.751349L68.464521 916.646812c-1.43274 10.745553 2.149111 21.491105 9.824506 29.064161 6.54967 6.54967 15.35079 10.131521 24.458924 10.131522 1.535079 0 3.070158-0.102339 4.605237-0.307016l239.98401-32.543674c7.470718-1.023386 14.429742-4.502898 19.751349-9.824505l563.476314-563.476315c16.271837-16.271837 25.175295-37.865281 25.175295-60.789126 0.102339-23.026184-8.801119-44.619628-25.072956-60.891465zM326.460124 855.960024l-183.390766 24.868279 24.868279-183.390766 399.325205-399.325204 158.522487 158.522486L326.460124 855.960024z m555.289226-555.186888L774.703178 407.819308 616.28303 249.296822 723.226864 142.25065c4.298221-4.298221 9.312812-4.912253 11.973616-4.912253s7.675395 0.614032 11.973616 4.912253l134.575254 134.575254c4.298221 4.298221 4.912253 9.312812 4.912253 11.973616 0 2.660804-0.614032 7.675395-4.912253 11.973616z" fill="" p-id="6863"></path></svg>