<?xml version="1.0" standalone="no"?><!DOCTYPE svg PUBLIC "-//W3C//DTD SVG 1.1//EN" "http://www.w3.org/Graphics/SVG/1.1/DTD/svg11.dtd"><svg t="1719643669917" class="icon" viewBox="0 0 1024 1024" version="1.1" xmlns="http://www.w3.org/2000/svg" p-id="11904" xmlns:xlink="http://www.w3.org/1999/xlink" width="200" height="200"><path d="M761.6 467.2C640 467.2 537.6 556.8 512 672H236.8V275.2h352c19.2 76.8 89.6 128 172.8 128 96 0 179.2-83.2 179.2-179.2S857.6 44.8 761.6 44.8c-83.2 0-147.2 51.2-172.8 128H57.6c-25.6 0-51.2 19.2-51.2 51.2s25.6 51.2 51.2 51.2h76.8v416c0 44.8 38.4 83.2 83.2 83.2H512c25.6 115.2 128 204.8 249.6 204.8 140.8 0 256-115.2 256-256s-115.2-256-256-256z m0-320c44.8 0 76.8 32 76.8 76.8s-32 76.8-76.8 76.8c-38.4 0-70.4-32-76.8-70.4v-6.4-6.4c6.4-38.4 38.4-70.4 76.8-70.4z" fill="#555555" p-id="11905"></path></svg>