<?xml version="1.0" standalone="no"?><!DOCTYPE svg PUBLIC "-//W3C//DTD SVG 1.1//EN" "http://www.w3.org/Graphics/SVG/1.1/DTD/svg11.dtd"><svg t="1719641805778" class="icon" viewBox="0 0 1024 1024" version="1.1" xmlns="http://www.w3.org/2000/svg" p-id="2714" xmlns:xlink="http://www.w3.org/1999/xlink" width="200" height="200"><path d="M400.696008 129.093147c-17.248849 0-31.233352 13.984503-31.233352 31.233352l0 30.470989c0 17.248849 13.984503 31.233352 31.233352 31.233352s31.233352-13.984503 31.233352-31.233352l0-30.470989C431.92936 143.078673 417.944857 129.093147 400.696008 129.093147z" fill="#999999" p-id="2715"></path><path d="M623.647823 129.093147c-17.248849 0-31.233352 13.984503-31.233352 31.233352l0 30.470989c0 17.248849 13.985526 31.233352 31.233352 31.233352 17.248849 0 31.233352-13.984503 31.233352-31.233352l0-30.470989C654.881175 143.078673 640.896672 129.093147 623.647823 129.093147z" fill="#999999" p-id="2716"></path><path d="M425.695379 312.937269c11.209296 18.047028 41.974997 48.588625 86.152149 48.588625 43.958164 0 75.100442-30.308283 86.573751-48.223305 9.302877-14.528901 5.068436-33.846876-9.455349-43.149752-14.539134-9.307993-33.851992-5.063319-43.149752 9.455349-0.121773 0.198521-13.379729 19.449981-33.968649 19.449981-19.993357 0-32.428573-18.107403-33.271778-19.373233-9.17087-14.417361-28.28009-18.799158-42.829458-9.760295C421.089477 279.028994 416.591023 298.28557 425.695379 312.937269z" fill="#999999" p-id="2717"></path><path d="M564.242851 625.945145l-20.278859 0L543.963992 462.486306c0-17.253966-13.985526-31.233352-31.233352-31.233352-17.248849 0-31.233352 13.979386-31.233352 31.233352l0 163.457816-20.283975 0c-45.924959 0-83.289961 37.363979-83.289961 83.289961l0 103.024421c0 45.924959 37.363979 83.289961 83.289961 83.289961l103.029538 0c45.924959 0 83.289961-37.363979 83.289961-83.289961L647.532813 709.234083C647.532813 663.309124 610.168834 625.945145 564.242851 625.945145zM585.066109 812.258505c0 11.286044-9.537214 20.822235-20.822235 20.822235L461.214337 833.080739c-11.286044 0-20.822235-9.537214-20.822235-20.822235L440.392102 709.234083c0-11.286044 9.537214-20.822235 20.822235-20.822235l103.029538 0c11.286044 0 20.822235 9.537214 20.822235 20.822235L585.066109 812.258505z" fill="#999999" p-id="2718"></path><path d="M250.808256 625.945145l-17.482163 0 0-266.970354c0-35.483142 28.864398-64.35368 64.343447-64.35368 17.248849 0 31.233352-13.984503 31.233352-31.233352s-13.985526-31.233352-31.233352-31.233352c-69.924559 0-126.810151 56.890708-126.810151 126.820384l0 266.970354-23.079648 0c-45.924959 0-83.289961 37.363979-83.289961 83.289961l0 103.024421c0 45.924959 37.363979 83.289961 83.289961 83.289961l103.029538 0c45.924959 0 83.289961-37.363979 83.289961-83.289961L334.099241 709.234083C334.098217 663.309124 296.734238 625.945145 250.808256 625.945145zM271.630491 812.258505c0 11.286044-9.537214 20.822235-20.822235 20.822235L147.778718 833.080739c-11.286044 0-20.822235-9.537214-20.822235-20.822235L126.956484 709.234083c0-11.286044 9.537214-20.822235 20.822235-20.822235l103.029538 0c11.286044 0 20.822235 9.537214 20.822235 20.822235L271.630491 812.258505z" fill="#999999" p-id="2719"></path><path d="M876.565113 625.945145l-21.961174 0 0-266.970354c0-69.929676-56.890708-126.820384-126.815267-126.820384-17.248849 0-31.233352 13.985526-31.233352 31.233352s13.984503 31.233352 31.233352 31.233352c35.483142 0 64.348564 28.869514 64.348564 64.35368l0 266.970354-18.605753 0c-45.924959 0-83.289961 37.363979-83.289961 83.289961l0 103.024421c0 45.924959 37.363979 83.289961 83.289961 83.289961l103.034655 0c45.924959 0 83.289961-37.363979 83.289961-83.289961L959.856098 709.234083C959.854051 663.309124 922.490072 625.945145 876.565113 625.945145zM897.387347 812.258505c0 11.286044-9.537214 20.822235-20.822235 20.822235L773.530458 833.080739c-11.286044 0-20.822235-9.537214-20.822235-20.822235L752.708224 709.234083c0-11.286044 9.537214-20.822235 20.822235-20.822235l103.034655 0c11.286044 0 20.822235 9.537214 20.822235 20.822235L897.387347 812.258505z" fill="#999999" p-id="2720"></path></svg>