<?xml version="1.0" standalone="no"?><!DOCTYPE svg PUBLIC "-//W3C//DTD SVG 1.1//EN" "http://www.w3.org/Graphics/SVG/1.1/DTD/svg11.dtd"><svg t="1719643784748" class="icon" viewBox="0 0 1024 1024" version="1.1" xmlns="http://www.w3.org/2000/svg" p-id="2518" xmlns:xlink="http://www.w3.org/1999/xlink" width="200" height="200"><path d="M316.652201 74.043048L339.889115 28.356912A53.16921 53.16921 0 0 1 386.756789 0h250.486058a53.16921 53.16921 0 0 1 46.867674 28.356912l23.236914 45.686136a53.16921 53.16921 0 0 0 47.261521 28.356913h177.624547A51.987672 51.987672 0 0 1 984.615021 153.599941a51.987672 51.987672 0 0 1-52.381518 51.19998H91.766134A51.987672 51.987672 0 0 1 39.384615 153.599941a51.987672 51.987672 0 0 1 52.381519-51.19998h177.624547a53.16921 53.16921 0 0 0 47.26152-28.356913z m-118.153801 181.956854h630.153604a51.593826 51.593826 0 0 1 52.381518 51.19998v614.399764a101.218423 101.218423 0 0 1-30.719988 72.467664 105.944575 105.944575 0 0 1-74.043048 29.932296H250.879919a105.944575 105.944575 0 0 1-74.043049-29.932296 101.218423 101.218423 0 0 1-30.719988-72.467664V307.199882A51.593826 51.593826 0 0 1 196.923016 255.999902z m52.381519 153.59994v460.799823a51.987672 51.987672 0 0 0 52.775364 51.199981h419.839838a51.987672 51.987672 0 0 0 52.775365-51.199981V409.599842a51.987672 51.987672 0 0 0-52.775365-51.19998H303.655283a51.987672 51.987672 0 0 0-54.350748 51.19998z m157.538401 51.199981a51.987672 51.987672 0 0 1 52.775364 51.19998v255.999902a51.987672 51.987672 0 0 1-52.775364 51.19998 51.987672 51.987672 0 0 1-52.381519-51.19998V511.999803a51.987672 51.987672 0 0 1 50.806135-51.19998z m210.313765 0a51.987672 51.987672 0 0 1 52.381518 51.19998v255.999902a51.987672 51.987672 0 0 1-52.381518 51.19998 51.987672 51.987672 0 0 1-52.775364-51.19998V511.999803a51.987672 51.987672 0 0 1 51.19998-51.19998z" p-id="2519"></path></svg>