<?xml version="1.0" standalone="no"?><!DOCTYPE svg PUBLIC "-//W3C//DTD SVG 1.1//EN" "http://www.w3.org/Graphics/SVG/1.1/DTD/svg11.dtd"><svg t="1719673411420" class="icon" viewBox="0 0 1024 1024" version="1.1" xmlns="http://www.w3.org/2000/svg" p-id="3565" xmlns:xlink="http://www.w3.org/1999/xlink" width="200" height="200"><path d="M891.744 637.856V377.6c27.712-12.8 44.8-40.544 44.8-70.4a76.48 76.48 0 0 0-76.8-76.8c-14.944 0-32 4.256-44.8 14.944l-226.144-128V115.2A76.48 76.48 0 0 0 512 38.4a76.48 76.48 0 0 0-76.8 76.8v2.144L209.056 249.6a76.8 76.8 0 0 0-46.912-14.944c-42.688-2.112-76.8 32-76.8 74.688 0 32 19.2 59.712 49.056 72.512V640c-29.856 8.544-49.056 36.256-49.056 66.144a76.48 76.48 0 0 0 76.8 76.8c14.912 0 32-4.288 44.8-12.8l230.4 132.256a76.48 76.48 0 0 0 76.8 76.8 76.48 76.48 0 0 0 76.8-76.8l228.256-132.256c12.8 8.512 27.744 12.8 42.656 12.8a76.48 76.48 0 0 0 76.8-76.8c-2.112-27.744-19.2-55.488-46.912-68.288z m-49.088-4.256c-8.512 2.144-17.056 6.4-25.6 10.656l-57.6-32c-2.112 0-6.4-2.112-8.512-2.112-12.8 0-25.6 10.656-25.6 25.6a22.4 22.4 0 0 0 10.656 19.2l51.2 29.856c-2.144 8.544-4.256 14.944-4.256 25.6s2.112 14.944 4.256 25.6l-215.456 123.744c-8.544-10.688-19.2-19.2-36.288-27.744v-64c-2.112-12.8-10.656-23.456-25.6-23.456-14.912 0-23.456 8.512-25.6 23.456v61.856c-14.912 4.288-29.856 12.8-38.4 27.744l-217.6-125.856c2.144-8.544 4.288-14.944 4.288-23.488 0-6.4 0-10.656-2.144-14.912l51.2-32 2.144-2.144A22.4 22.4 0 0 0 294.4 640c0-12.8-10.656-25.6-25.6-25.6-4.256 0-8.544 2.144-12.8 4.256l-51.2 32c-8.544-6.4-17.056-10.656-29.856-14.912v-253.888c10.656-4.256 19.2-8.512 27.712-14.912L256 396.8c2.144 2.144 6.4 2.144 8.544 2.144 12.8 0 25.6-10.688 25.6-25.6 0-6.4-4.288-12.8-8.544-19.2l-46.944-29.888C236.8 320 236.8 313.6 236.8 309.344c0-6.4 0-12.8-2.144-19.2l217.6-125.888c8.544 10.688 23.488 19.2 36.288 25.6v64c0 12.8 10.656 25.6 25.6 25.6a24.64 24.64 0 0 0 25.6-25.6v-64c12.8-4.256 25.6-12.8 34.112-25.6L789.344 288c-2.144 8.544-2.144 14.944-2.144 19.2v10.656l-51.2 32a22.4 22.4 0 0 0-10.656 19.2c0 12.8 10.656 25.6 25.6 25.6 4.256 0 6.4 0 10.656-2.112l49.056-29.888c8.544 8.544 23.488 14.944 36.288 19.2V633.6h-4.288z" p-id="3566"></path><path d="M387.136 352h272.896c10.72 0 19.04 8.32 19.648 19.072v292.512c0 10.72-8.32 19.072-19.072 19.072H387.2a18.816 18.816 0 0 1-19.072-19.072v-28.576A16 16 0 0 1 352 618.88v-88.768a16 16 0 0 1 16.096-16.096v-142.976c0-10.72 8.32-19.072 19.04-19.072z m-16.064 181.12v82.816h206.72V533.12h-206.72z m123.328-67.328l-82.816 48.256h145.952l-63.136-48.256z m-101.28 191.232h260.928v-131.648l-41.088-30.976-16.096 23.84c-0.576 1.184-1.792 2.368-2.368 2.976a13.664 13.664 0 0 1 2.368 8.32v89.376a16 16 0 0 1-16.096 16.096h-187.648v22.016z m229.952-187.072l30.976 23.84v-116.768h-260.352v117.952l91.744-53.6a18.784 18.784 0 0 1 21.44 1.184l72.704 56 16.096-23.84a18.848 18.848 0 0 1 27.392-4.768z m-10.112-29.184a21.984 21.984 0 0 0 22.048-22.048c0-12.48-10.144-22.624-22.08-22.048a21.984 21.984 0 0 0-22.016 22.08c0 11.904 9.536 22.016 22.048 22.016z m-201.984 117.376v41.696h-12.48v-41.696h-14.912v-9.536h42.88v9.536h-15.488z m57.792 32.16v9.536h-35.136v-51.232h35.136v9.536h-22.624v10.72h19.04v9.536h-19.04v11.904h22.624z m17.888-41.696l8.32 17.28 8.352-17.28h13.696l-14.304 25.6 14.912 25.632h-14.304l-8.32-17.28-8.96 17.28h-14.304l14.912-25.6-14.304-25.632h14.304z m61.344 51.232v-41.696h15.52v-9.536h-42.304v9.536h14.88v41.696h11.904z" p-id="3567"></path></svg>