<?xml version="1.0" standalone="no"?><!DOCTYPE svg PUBLIC "-//W3C//DTD SVG 1.1//EN" "http://www.w3.org/Graphics/SVG/1.1/DTD/svg11.dtd"><svg t="1719664930065" class="icon" viewBox="0 0 1024 1024" version="1.1" xmlns="http://www.w3.org/2000/svg" p-id="7409" xmlns:xlink="http://www.w3.org/1999/xlink" width="200" height="200"><path d="M85.349273 0l406.998039 0c80.564366 0 140.636219 3.388188 180.2315 10.146633 39.59528 6.775381 75.017341 20.878055 106.278136 42.325955 31.243859 21.449893 57.287382 50.008904 78.128576 85.67006 20.841194 35.68407 31.260795 75.653934 31.260795 119.954422 0 48.037359-12.800598 92.095763-38.365929 132.19713-25.566327 40.101367-60.254164 70.187603-104.024657 90.2348 61.938794 18.153358 109.557735 49.0844 142.851841 92.795118s49.943152 95.096417 49.943152 154.162075c0 46.510134-10.789203 91.745089-32.327761 135.694904-21.535569 43.966751-50.950344 79.078983-88.238349 105.350643-37.285016 26.294574-83.275116 42.439526-137.922481 48.47869-34.287351 3.717942-116.975686 6.059089-248.068989 6.977616L85.349273 1023.988045 85.349273 0zM290.466673 170.861928l0 236.847421 134.759441 0c80.106099 0 129.900813-1.157623 149.351266-3.49877 35.1999-4.178201 62.874257-16.403972 83.019084-36.676318 20.147816-20.249432 30.219732-46.930544 30.219732-79.997509 0-31.670247-8.701099-57.389994-26.061455-77.20208-17.365337-19.792161-43.187697-31.778836-77.452134-35.973973-20.383923-2.321223-78.971389-3.49877-175.745462-3.49877L290.466673 170.861928 290.466673 170.861928zM290.466673 578.570281l0 272.198748 190.855328 0c74.283117 0 121.424862-2.082127 141.387379-6.240403 30.640142-5.560973 55.60076-19.091809 74.865913-40.616419 19.265154-21.52461 28.919648-50.338657 28.919648-86.463062 0-30.546496-7.435883-56.46549-22.289717-77.770929-14.87077-21.285514-36.335606-36.804832-64.430373-46.524081-28.094767-9.725226-89.043305-14.583855-182.830672-14.583855L290.466673 578.570281z" fill="#272636" p-id="7410"></path></svg>