<?xml version="1.0" standalone="no"?><!DOCTYPE svg PUBLIC "-//W3C//DTD SVG 1.1//EN" "http://www.w3.org/Graphics/SVG/1.1/DTD/svg11.dtd"><svg t="1719904644273" class="icon" viewBox="0 0 1024 1024" version="1.1" xmlns="http://www.w3.org/2000/svg" p-id="5580" xmlns:xlink="http://www.w3.org/1999/xlink" width="200" height="200"><path d="M432.3 893.3c-80.3 0-155.8-31.3-212.6-88.1l-1-1c-56.7-56.7-88-132.2-88-212.5 0-80.3 31.3-155.8 88.1-212.6l271.6-271.6c11.7-11.7 30.7-11.7 42.4 0s11.7 30.7 0 42.4L261.2 421.5c-45.4 45.4-70.5 105.9-70.5 170.1 0 64.3 25 124.7 70.5 170.1l1 1c45.4 45.4 105.9 70.5 170.1 70.5 64.3 0 124.7-25 170.1-70.5L826.3 539c28.5-28.5 44.2-66.4 44.2-106.7s-15.7-78.2-44.2-106.7-66.4-44.2-106.7-44.2-78.2 15.7-106.7 44.2L412.5 526c-23.6 23.6-23.6 61.9 0 85.5s61.9 23.6 85.5 0l177.4-177.4c11.7-11.7 30.7-11.7 42.4 0s11.7 30.7 0 42.4L540.4 653.9c-47 47-123.4 47-170.3 0-47-47-47-123.4 0-170.3l200.3-200.3c82.2-82.2 216-82.2 298.2 0 39.8 39.8 61.8 92.8 61.8 149.1s-21.9 109.3-61.8 149.1L644.9 805.2c-56.8 56.8-132.3 88.1-212.6 88.1z" fill="#333333" p-id="5581"></path></svg>