<?xml version="1.0" standalone="no"?><!DOCTYPE svg PUBLIC "-//W3C//DTD SVG 1.1//EN" "http://www.w3.org/Graphics/SVG/1.1/DTD/svg11.dtd"><svg t="1719672636004" class="icon" viewBox="0 0 1024 1024" version="1.1" xmlns="http://www.w3.org/2000/svg" p-id="2538" xmlns:xlink="http://www.w3.org/1999/xlink" width="200" height="200"><path d="M908.544 156.16H141.056c-30.6944 0-57.6512 11.0592-79.5648 32.6144-22.016 21.6576-33.3312 48.384-33.3312 78.848v488.7808c0 30.464 11.3152 57.1648 33.3312 78.8224A110.2848 110.2848 0 0 0 141.056 867.84h767.488c30.72 0 57.6512-11.0592 79.5648-32.6144 22.016-21.6576 33.3312-48.3584 33.3312-78.8224V267.6224c0-30.464-11.3152-57.1904-33.3312-78.848A110.208 110.208 0 0 0 908.5696 156.16zM141.056 202.24h767.488c18.6112 0 33.9456 6.2976 47.2576 19.4048 13.2352 13.0048 19.5584 27.904 19.5584 45.9776v488.7808c0 18.048-6.3232 32.9216-19.5584 45.952-13.312 13.1072-28.672 19.4048-47.232 19.4048H141.056a64.256 64.256 0 0 1-47.2832-19.4048c-13.2352-13.0304-19.5584-27.904-19.5584-45.952V267.6224c0-18.048 6.3232-32.9728 19.5584-45.9776A64.256 64.256 0 0 1 141.056 202.24z" fill="#666666" p-id="2539"></path><path d="M281.6 476.16a23.04 23.04 0 0 1 2.8928 45.9008L281.6 522.24H204.8a23.04 23.04 0 0 1-2.8928-45.9008L204.8 476.16h76.8z" fill="#666666" p-id="2540"></path><path d="M460.8 476.16a23.04 23.04 0 0 1 2.8928 45.9008L460.8 522.24h-76.8a23.04 23.04 0 0 1-2.8928-45.9008L384 476.16h76.8z" fill="#FF6D00" p-id="2541"></path><path d="M640 476.16a23.04 23.04 0 0 1 2.8928 45.9008L640 522.24h-76.8a23.04 23.04 0 0 1-2.8928-45.9008L563.2 476.16h76.8zM844.8 629.76a23.04 23.04 0 0 1 2.8928 45.9008L844.8 675.84H204.8a23.04 23.04 0 0 1-2.8928-45.9008L204.8 629.76h640zM819.2 476.16a23.04 23.04 0 0 1 2.8928 45.9008L819.2 522.24h-76.8a23.04 23.04 0 0 1-2.8928-45.9008L742.4 476.16h76.8zM281.6 348.16a23.04 23.04 0 0 1 2.8928 45.9008L281.6 394.24H204.8a23.04 23.04 0 0 1-2.8928-45.9008L204.8 348.16h76.8zM460.8 348.16a23.04 23.04 0 0 1 2.8928 45.9008L460.8 394.24h-76.8a23.04 23.04 0 0 1-2.8928-45.9008L384 348.16h76.8z" fill="#666666" p-id="2542"></path><path d="M640 348.16a23.04 23.04 0 0 1 2.8928 45.9008L640 394.24h-76.8a23.04 23.04 0 0 1-2.8928-45.9008L563.2 348.16h76.8z" fill="#FF6D00" p-id="2543"></path><path d="M819.2 348.16a23.04 23.04 0 0 1 2.8928 45.9008L819.2 394.24h-76.8a23.04 23.04 0 0 1-2.8928-45.9008L742.4 348.16h76.8z" fill="#666666" p-id="2544"></path></svg>