<?xml version="1.0" standalone="no"?><!DOCTYPE svg PUBLIC "-//W3C//DTD SVG 1.1//EN" "http://www.w3.org/Graphics/SVG/1.1/DTD/svg11.dtd"><svg t="1719498162055" class="icon" viewBox="0 0 1024 1024" version="1.1" xmlns="http://www.w3.org/2000/svg" p-id="2496" xmlns:xlink="http://www.w3.org/1999/xlink" width="200" height="200"><path d="M874.02 45c27.88 0 54.2 10.97 74.11 30.88 19.9 19.91 30.87 46.23 30.87 74.1v724.03c0 27.88-10.97 54.2-30.88 74.11-19.91 19.91-46.23 30.88-74.1 30.88H149.98c-27.88 0-54.19-10.97-74.11-30.88C55.97 928.21 45 901.89 45 874.02V149.98c0-27.88 10.97-54.19 30.88-74.11S122.11 45 149.98 45h724.04m0-45H149.98C67.49 0 0 67.49 0 149.98v724.03C0 956.51 67.49 1024 149.98 1024h724.03c82.49 0 149.98-67.49 149.98-149.98V149.98C1024 67.49 956.51 0 874.02 0z" fill="#303133" p-id="2497"></path><path d="M471.92 324.2h322.8c12.43 0 22.5-10.07 22.5-22.5s-10.07-22.5-22.5-22.5h-322.8c-12.43 0-22.5 10.07-22.5 22.5s10.07 22.5 22.5 22.5zM794.72 503.02h-322.8c-12.43 0-22.5 10.07-22.5 22.5s10.07 22.5 22.5 22.5h322.8c12.43 0 22.5-10.07 22.5-22.5s-10.07-22.5-22.5-22.5zM794.72 742.55h-322.8c-12.43 0-22.5 10.07-22.5 22.5s10.07 22.5 22.5 22.5h322.8c12.43 0 22.5-10.07 22.5-22.5s-10.07-22.5-22.5-22.5z" fill="#303133" p-id="2498"></path><path d="M324.83 742.55h-42.04V548.02h42.04c12.43 0 22.5-10.07 22.5-22.5s-10.07-22.5-22.5-22.5h-42.04V365.77c25.87-9.45 44.35-34.28 44.35-63.42 0-37.28-30.22-67.5-67.5-67.5s-67.5 30.22-67.5 67.5c0 29.63 19.1 54.78 45.65 63.87v398.45c0 12.34 10 22.34 22.34 22.34h0.06c1.59 0.36 3.24 0.55 4.94 0.55h59.71c12.43 0 22.5-10.07 22.5-22.5-0.01-12.44-10.09-22.51-22.51-22.51z" fill="#303133" p-id="2499"></path></svg>