<?xml version="1.0" standalone="no"?><!DOCTYPE svg PUBLIC "-//W3C//DTD SVG 1.1//EN" "http://www.w3.org/Graphics/SVG/1.1/DTD/svg11.dtd"><svg t="1719643942530" class="icon" viewBox="0 0 1024 1024" version="1.1" xmlns="http://www.w3.org/2000/svg" p-id="4494" xmlns:xlink="http://www.w3.org/1999/xlink" width="200" height="200"><path d="M519.168 26.88l358.4 32.64a96 96 0 0 1 86.912 86.912l32.64 358.4a128 128 0 0 1-36.992 102.144L595.2 971.84a128 128 0 0 1-180.992 0L52.16 609.792a128 128 0 0 1 0-180.992L417.024 63.872A128 128 0 0 1 519.168 26.944zM507.52 154.496L142.656 519.296l362.048 362.048 364.864-364.928-30.08-331.84-331.904-30.144z m200.768 161.28a112 112 0 1 1-158.4 158.336 112 112 0 0 1 158.4-158.4z" fill="#3D454C" p-id="4495"></path></svg>