<?xml version="1.0" standalone="no"?><!DOCTYPE svg PUBLIC "-//W3C//DTD SVG 1.1//EN" "http://www.w3.org/Graphics/SVG/1.1/DTD/svg11.dtd"><svg t="1719974903949" class="icon" viewBox="0 0 1024 1024" version="1.1" xmlns="http://www.w3.org/2000/svg" p-id="2412" xmlns:xlink="http://www.w3.org/1999/xlink" width="128" height="128"><path d="M354.05824 250.34752a112.39424 112.39424 0 0 0-114.2784 110.592v34.07872a26.37824 26.37824 0 0 1-52.71552 0v-34.07872a164.2496 164.2496 0 0 1 166.99392-161.5872h105.34912a25.55904 25.55904 0 1 1 0 50.9952H354.05824z m77.4144 600.55552h-44.2368a31.17056 31.17056 0 0 0 2.29376-11.6736 243.95776 243.95776 0 0 0-245.92384-240.10752v-27.2384a110.592 110.592 0 0 1 112.4352-108.9536h175.59552a110.592 110.592 0 0 1 112.39424 108.9536v170.10688a110.592 110.592 0 0 1-112.39424 108.87168l-0.16384 0.04096z m28.0576-251.74016a34.07872 34.07872 0 1 0-35.14368-34.03776c0.28672 19.0464 15.9744 34.28352 35.0208 33.9968h0.12288zM322.92864 838.8608c0 4.096 0.77824 8.192 2.2528 12.04224H255.75424A112.39424 112.39424 0 0 1 143.36 738.54976v-81.1008a181.57568 181.57568 0 0 1 179.6096 181.53472v-0.12288zM726.6304 125.952a25.8048 25.8048 0 0 1 26.25536 25.6v49.80736h101.376c7.33184 0 14.336 2.94912 19.37408 8.192a25.1904 25.1904 0 0 1 6.9632 19.41504 294.912 294.912 0 0 1-98.9184 192.3072c21.7088 16.30208 47.59552 26.17344 74.67008 28.54912a25.8048 25.8048 0 0 1 24.1664 27.52512 26.13248 26.13248 0 0 1-28.30336 23.51104 200.66304 200.66304 0 0 1-113.0496-47.18592 300.2368 300.2368 0 0 1-138.24 47.104 26.13248 26.13248 0 0 1-28.34432-23.47008 25.8048 25.8048 0 0 1 24.1664-27.56608 245.30944 245.30944 0 0 0 106.61888-34.6112 186.28608 186.28608 0 0 1-35.0208-93.02016 25.31328 25.31328 0 0 1 11.0592-23.9616 26.99264 26.99264 0 0 1 26.91072-2.048c8.64256 4.01408 14.336 12.53376 14.7456 22.1184 2.21184 23.7568 10.6496 46.57152 24.49408 66.02752A250.96192 250.96192 0 0 0 824.1152 252.7232h-224.8704a25.8048 25.8048 0 1 1 0-51.24096h101.29408V151.38816a26.0096 26.0096 0 0 1 26.09152-25.43616z m119.11168 447.03744a26.0096 26.0096 0 0 1 26.33728 25.6v102.44096a164.61824 164.61824 0 0 1-166.83008 162.2016h-35.10272a25.8048 25.8048 0 1 1 0-51.2h35.10272a112.59904 112.59904 0 0 0 114.2784-111.0016v-102.4a26.0096 26.0096 0 0 1 26.2144-25.64096z" p-id="2413"></path></svg>