<?xml version="1.0" standalone="no"?><!DOCTYPE svg PUBLIC "-//W3C//DTD SVG 1.1//EN" "http://www.w3.org/Graphics/SVG/1.1/DTD/svg11.dtd"><svg t="1719643891758" class="icon" viewBox="0 0 1024 1024" version="1.1" xmlns="http://www.w3.org/2000/svg" p-id="3508" xmlns:xlink="http://www.w3.org/1999/xlink" width="200" height="200"><path d="M139.17297778 847.59815122v-82.85044937h-82.85044939a41.42522469 41.42522469 0 1 1 0-82.85044939h82.85044939v-82.8504494a41.42522469 41.42522469 0 1 1 82.85044938 0v82.8504494h82.85044937a41.42522469 41.42522469 0 0 1 0 82.85044939h-82.85044937v82.85044937a41.42522469 41.42522469 0 1 1-82.85044938 0z" p-id="3509"></path><path d="M470.63000937 889.02337591v-82.85044938h469.48587897v-607.56996172H223.45950118v248.55134815H139.22821185v-220.93453212a110.46726541 110.46726541 0 0 1 110.46726541-110.46726539h662.80359506a110.46726541 110.46726541 0 0 1 110.46726542 110.46726539v552.33632966a110.46726541 110.46726541 0 0 1-110.46726542 110.46726541z m69.04204073-248.55134814a41.42522469 41.42522469 0 1 1 0-82.85044939h248.55134814a41.42522469 41.42522469 0 1 1 0 82.85044939z m-110.46726542-220.93453212a41.42522469 41.42522469 0 1 1 0-82.85044939h359.01861356a41.42522469 41.42522469 0 0 1 0 82.85044939z" p-id="3510"></path></svg>