<?xml version="1.0" standalone="no"?><!DOCTYPE svg PUBLIC "-//W3C//DTD SVG 1.1//EN" "http://www.w3.org/Graphics/SVG/1.1/DTD/svg11.dtd"><svg t="1719643975730" class="icon" viewBox="0 0 1024 1024" version="1.1" xmlns="http://www.w3.org/2000/svg" p-id="6449" xmlns:xlink="http://www.w3.org/1999/xlink" width="200" height="200"><path d="M823.408219 7.013699H214.619178c-19.638356 0-35.068493 15.430137-35.068493 35.068493v939.835616c0 14.027397 8.416438 26.652055 22.443836 32.263014 12.624658 5.610959 28.054795 2.805479 37.873972-8.416438l280.547945-284.756165L799.561644 1005.764384c7.013699 7.013699 15.430137 11.221918 25.249315 11.221917 4.208219 0 8.416438-1.40274 12.624657-2.805479 12.624658-5.610959 22.443836-18.235616 22.443836-32.263014V42.082192C858.476712 22.443836 843.046575 7.013699 823.408219 7.013699z m-35.068493 889.336986L544.263014 646.663014c-7.013699-7.013699-15.430137-11.221918-25.249315-11.221918s-18.235616 4.208219-25.249315 9.819178L249.687671 896.350685V77.150685h538.652055v819.2z" fill="#464646" p-id="6450"></path></svg>