<?xml version="1.0" standalone="no"?><!DOCTYPE svg PUBLIC "-//W3C//DTD SVG 1.1//EN" "http://www.w3.org/Graphics/SVG/1.1/DTD/svg11.dtd"><svg t="1719498183388" class="icon" viewBox="0 0 1024 1024" version="1.1" xmlns="http://www.w3.org/2000/svg" p-id="4721" xmlns:xlink="http://www.w3.org/1999/xlink" width="200" height="200"><path d="M824.4224 399.872A158.208 158.208 0 1 1 983.04 241.7664a158.3104 158.3104 0 0 1-158.6176 158.1056z m0-234.3936A76.288 76.288 0 1 0 901.12 241.7664a76.288 76.288 0 0 0-76.6976-76.288z" fill="#3080E9" p-id="4722"></path><path d="M629.248 823.1936h-306.176v-81.92h306.176a94.208 94.208 0 1 0 0-188.3136H372.1216a176.128 176.128 0 0 1 0-352.1536h316.5184v81.92H372.1216a94.208 94.208 0 0 0 0 188.3136h257.1264a176.128 176.128 0 1 1 0 352.1536z" fill="#3080E9" p-id="4723"></path><path d="M199.0656 940.3392a158.1056 158.1056 0 1 1 158.208-158.1056 158.3104 158.3104 0 0 1-158.208 158.1056z m0-234.2912a76.1856 76.1856 0 1 0 76.288 76.1856A76.288 76.288 0 0 0 199.0656 706.56z" fill="#3080E9" p-id="4724"></path></svg>