<?xml version="1.0" standalone="no"?><!DOCTYPE svg PUBLIC "-//W3C//DTD SVG 1.1//EN" "http://www.w3.org/Graphics/SVG/1.1/DTD/svg11.dtd"><svg t="1719643740026" class="icon" viewBox="0 0 1024 1024" version="1.1" xmlns="http://www.w3.org/2000/svg" p-id="1495" xmlns:xlink="http://www.w3.org/1999/xlink" width="200" height="200"><path d="M416.00896 222.08h512a96 96 0 0 0 0-192h-512a96 96 0 0 0 0 192z" fill="#040000" p-id="1496"></path><path d="M453.76896 542.08a96 96 0 0 0 90.24 64h384a96 96 0 0 0 0-192h-384a96 96 0 0 0-90.24 64H128.00896V216.32a96 96 0 1 0-64 0v645.76a64 64 0 0 0 64 64h325.76a96 96 0 0 0 90.24 64h384a96 96 0 0 0 0-192h-384a96 96 0 0 0-90.24 64H128.00896v-320z" fill="#040000" p-id="1497"></path></svg>