<?xml version="1.0" standalone="no"?><!DOCTYPE svg PUBLIC "-//W3C//DTD SVG 1.1//EN" "http://www.w3.org/Graphics/SVG/1.1/DTD/svg11.dtd"><svg t="1719498171292" class="icon" viewBox="0 0 1024 1024" version="1.1" xmlns="http://www.w3.org/2000/svg" p-id="3665" xmlns:xlink="http://www.w3.org/1999/xlink" width="200" height="200"><path d="M639.360213 310.4l47.786667-50.133333 208.64-219.52a60.288 60.288 0 0 1 88.533333 0A66.538667 66.538667 0 0 1 1002.66688 87.253333a66.538667 66.538667 0 0 1-18.346667 46.506667l-205.44 216.32-60.373333 63.36-88.533333-93.226667z" fill="#FF9500" p-id="3666"></path><path d="M659.62688 475.946667l-88.746667-93.44-14.72-15.573334 59.093334-62.08 14.72 15.36 88.533333 93.226667 14.933333 15.573333-59.093333 62.293334-14.72-15.36z" fill="#00A6FF" p-id="3667"></path><path d="M874.66688 426.666667a289.322667 289.322667 0 0 1 128 234.666666c0 188.586667-200.32 341.333333-448 341.333334-294.826667 0-533.333333-200.32-533.333333-448C21.333547 259.84 240.853547 21.333333 512.000213 21.333333c94.293333 0 170.666667 57.173333 170.666667 128v106.666667l4.48 4.266667-47.786667 50.133333c-2.56-23.253333-13.44-77.866667-63.36-94.293333-40.533333-13.226667-85.333333 21.12-85.333333 84.053333 0 35.413333 47.36 71.893333 60.586667 81.493333a100.458667 100.458667 0 0 0-68.906667 31.786667 391.594667 391.594667 0 0 1-35.626667 33.066667c-45.653333 38.613333-103.893333 75.733333-126.72 75.733333 112.853333 118.613333 233.173333 116.053333 300.586667 55.893333 3.2-2.986667 6.4-5.973333 9.386667-9.173333a113.066667 113.066667 0 0 0 29.653333-93.013333l14.72 15.36 59.093333-62.293334-14.933333-15.573333 60.373333-63.36z m42.666667 213.333333a85.333333 85.333333 0 1 0-85.333334 85.333333 85.333333 85.333333 0 0 0 85.333334-85.333333z m-192 170.666667a85.333333 85.333333 0 1 0-85.333334 85.333333 85.333333 85.333333 0 0 0 85.333334-85.333333z m-277.333334-42.666667a85.333333 85.333333 0 1 0-85.333333 85.333333 85.333333 85.333333 0 0 0 85.333333-85.333333z m-42.666666-469.333333a85.333333 85.333333 0 1 0-85.333334 85.333333 85.333333 85.333333 0 0 0 85.333334-85.333333z m-128 256a85.333333 85.333333 0 1 0-85.333334 85.333333 85.333333 85.333333 0 0 0 85.333334-85.333333z" fill="#E4E4E4" p-id="3668"></path><path d="M832.000213 640m-85.333333 0a85.333333 85.333333 0 1 0 170.666667 0 85.333333 85.333333 0 1 0-170.666667 0Z" fill="#FF7D81" p-id="3669"></path><path d="M640.000213 810.666667m-85.333333 0a85.333333 85.333333 0 1 0 170.666667 0 85.333333 85.333333 0 1 0-170.666667 0Z" fill="#24F2DC" p-id="3670"></path><path d="M551.253547 381.653333a85.973333 85.973333 0 0 1 19.626666 0.853334l88.746667 93.44a113.066667 113.066667 0 0 1-29.653333 93.013333c-2.986667 3.2-6.186667 6.186667-9.386667 9.173333L618.66688 576a67.904 67.904 0 0 0-49.493333-21.12 237.824 237.824 0 0 1-55.04-5.973333 71.082667 71.082667 0 0 1-33.706667-24.32 37.589333 37.589333 0 0 1-6.613333-12.586667 58.752 58.752 0 0 1-0.64-17.28 65.088 65.088 0 0 0-3.84-28.586667 30.848 30.848 0 0 0-21.333334-18.133333l-1.28-1.493333a391.594667 391.594667 0 0 0 35.626667-33.066667 100.458667 100.458667 0 0 1 68.906667-31.786667z" fill="#E4E4E4" p-id="3671"></path><path d="M639.360213 310.4l-9.386666 9.813333-14.72-15.36-59.093334 62.08 14.72 15.573334a85.973333 85.973333 0 0 0-19.626666-0.853334c-13.226667-9.6-60.586667-46.08-60.586667-81.493333 0-62.933333 44.8-97.28 85.333333-84.053333 49.92 16.426667 60.8 71.04 63.36 94.293333z" fill="#FCFCFC" p-id="3672"></path><path d="M618.66688 576l1.92 2.133333c-67.413333 60.16-187.733333 62.72-300.586667-55.893333 22.826667 0 81.066667-37.12 126.72-75.733333L448.000213 448a30.848 30.848 0 0 1 21.333334 18.133333 65.088 65.088 0 0 1 3.84 28.586667 58.752 58.752 0 0 0 0.64 17.28 37.589333 37.589333 0 0 0 6.613333 12.586667 71.082667 71.082667 0 0 0 33.706667 24.32 237.824 237.824 0 0 0 55.04 5.973333A67.904 67.904 0 0 1 618.66688 576z" fill="#00A6FF" p-id="3673"></path><path d="M362.66688 768m-85.333333 0a85.333333 85.333333 0 1 0 170.666666 0 85.333333 85.333333 0 1 0-170.666666 0Z" fill="#3AD6FF" p-id="3674"></path><path d="M320.000213 298.666667m-85.333333 0a85.333333 85.333333 0 1 0 170.666667 0 85.333333 85.333333 0 1 0-170.666667 0Z" fill="#9D87E0" p-id="3675"></path><path d="M192.000213 554.666667m-85.333333 0a85.333333 85.333333 0 1 0 170.666667 0 85.333333 85.333333 0 1 0-170.666667 0Z" fill="#FFD747" p-id="3676"></path><path d="M832.000213 682.666667a85.098667 85.098667 0 0 1-82.325333-64 85.333333 85.333333 0 1 0 164.650667 0A85.098667 85.098667 0 0 1 832.000213 682.666667z" fill="#FF475A" p-id="3677"></path><path d="M895.78688 104.746667a60.288 60.288 0 0 1 88.533333 0 63.509333 63.509333 0 0 1 10.197334 14.506666A68.266667 68.266667 0 0 0 1002.66688 87.253333a66.538667 66.538667 0 0 0-18.346667-46.506666 60.288 60.288 0 0 0-88.533333 0L687.14688 260.266667l-47.786667 50.133333-9.386666 9.813333 30.464 32 26.709333-27.946666z" fill="#FFB13B" p-id="3678"></path><path d="M718.50688 413.866667l14.933333 15.573333-59.093333 62.293333-14.72-15.36a113.066667 113.066667 0 0 1-29.653333 93.013334c-2.986667 3.2-6.186667 6.186667-9.386667 9.173333a161.6 161.6 0 0 1-11.946667 9.557333c-1.344 0.981333-2.752 1.877333-4.117333 2.816a148.117333 148.117333 0 0 1-8.874667 5.632c-1.664 0.981333-3.328 1.962667-5.056 2.88-2.986667 1.621333-6.08 3.093333-9.194666 4.522667-1.706667 0.789333-3.392 1.642667-5.12 2.368a160.341333 160.341333 0 0 1-13.568 4.949333c-2.581333 0.810667-5.248 1.429333-7.893334 2.133334a144.853333 144.853333 0 0 1-16.426666 3.434666c-1.834667 0.298667-3.712 0.533333-5.589334 0.768-3.605333 0.448-7.232 0.853333-10.944 1.066667h-0.853333a189.205333 189.205333 0 0 1-43.669333-2.837333l-1.173334-0.213334a241.685333 241.685333 0 0 1-79.893333-31.104A137.322667 137.322667 0 0 1 341.333547 608c112.853333 118.613333 233.173333 116.053333 300.586666 55.893333 3.2-2.986667 6.4-5.973333 9.386667-9.173333a113.066667 113.066667 0 0 0 29.653333-93.013333l14.72 15.36 59.093334-62.293334-14.933334-15.573333 60.373334-63.36 36.864-38.805333-58.197334-46.549334z" fill="#ADADAD" p-id="3679"></path><path d="M469.333547 466.133333a65.088 65.088 0 0 1 3.84 28.586667 58.752 58.752 0 0 0 0.64 17.28 37.589333 37.589333 0 0 0 6.613333 12.586667 70.4 70.4 0 0 0 16.213333 15.402666c12.096-9.834667 24.128-19.946667 35.413334-29.482666a391.594667 391.594667 0 0 0 35.626666-33.066667 100.266667 100.266667 0 0 1 63.786667-31.082667l-60.586667-63.850666a85.973333 85.973333 0 0 0-19.626666-0.853334 100.458667 100.458667 0 0 0-68.906667 31.786667 391.594667 391.594667 0 0 1-35.626667 33.066667L448.000213 448a30.848 30.848 0 0 1 21.333334 18.133333z" fill="#F0F0F0" p-id="3680"></path><path d="M480.42688 524.586667a37.589333 37.589333 0 0 1-6.613333-12.586667 58.752 58.752 0 0 1-0.64-17.28 65.088 65.088 0 0 0-3.84-28.586667 30.848 30.848 0 0 0-21.333334-18.133333l-1.28-1.493333c-45.653333 38.613333-103.893333 75.733333-126.72 75.733333a341.930667 341.930667 0 0 0 96 72.661333 373.866667 373.866667 0 0 0 80.576-54.912 70.4 70.4 0 0 1-16.149333-15.402666z" fill="#3AD6FF" p-id="3681"></path><path d="M832.000213 533.333333a106.666667 106.666667 0 1 0 106.666667 106.666667 106.666667 106.666667 0 0 0-106.666667-106.666667z m0 192a85.333333 85.333333 0 1 1 85.333334-85.333333 85.333333 85.333333 0 0 1-85.333334 85.333333zM640.000213 704a106.666667 106.666667 0 1 0 106.666667 106.666667 106.666667 106.666667 0 0 0-106.666667-106.666667z m0 192a85.333333 85.333333 0 1 1 85.333334-85.333333 85.333333 85.333333 0 0 1-85.333334 85.333333zM362.66688 661.333333a106.666667 106.666667 0 1 0 106.666667 106.666667 106.666667 106.666667 0 0 0-106.666667-106.666667z m0 192a85.333333 85.333333 0 1 1 85.333333-85.333333 85.333333 85.333333 0 0 1-85.333333 85.333333zM192.000213 448a106.666667 106.666667 0 1 0 106.666667 106.666667 106.666667 106.666667 0 0 0-106.666667-106.666667z m0 192a85.333333 85.333333 0 1 1 85.333334-85.333333 85.333333 85.333333 0 0 1-85.333334 85.333333zM320.000213 192a106.666667 106.666667 0 1 0 106.666667 106.666667 106.666667 106.666667 0 0 0-106.666667-106.666667z m0 192a85.333333 85.333333 0 1 1 85.333334-85.333333 85.333333 85.333333 0 0 1-85.333334 85.333333z" fill="#C1C1C1" p-id="3682"></path><path d="M733.440213 429.013333l-14.933333-15.573333-88.533333-93.226667-14.72-15.36-26.538667 27.861334 121.152 121.152 23.573333-24.853334z" fill="#3AD6FF" p-id="3683"></path><path d="M640.000213 853.333333a85.098667 85.098667 0 0 1-82.325333-64 85.333333 85.333333 0 1 0 164.650667 0A85.098667 85.098667 0 0 1 640.000213 853.333333z" fill="#00C7B1" p-id="3684"></path><path d="M362.66688 810.666667a85.098667 85.098667 0 0 1-82.325333-64 85.333333 85.333333 0 1 0 164.650666 0A85.098667 85.098667 0 0 1 362.66688 810.666667z" fill="#00A6FF" p-id="3685"></path><path d="M192.000213 597.333333a85.098667 85.098667 0 0 1-82.325333-64 85.333333 85.333333 0 1 0 164.650667 0A85.098667 85.098667 0 0 1 192.000213 597.333333z" fill="#FFBC36" p-id="3686"></path><path d="M320.000213 341.333333a85.098667 85.098667 0 0 1-82.325333-64 85.333333 85.333333 0 1 0 164.650667 0A85.098667 85.098667 0 0 1 320.000213 341.333333z" fill="#725CB5" p-id="3687"></path><path d="M563.655382 167.60479a48.768 35.029333 44.98 1 0 49.521663-49.556247 48.768 35.029333 44.98 1 0-49.521663 49.556247Z" fill="#F6FAFD" p-id="3688"></path><path d="M469.266146 134.220089a24.490667 17.6 44.98 1 0 24.881468-24.898845 24.490667 17.6 44.98 1 0-24.881468 24.898845Z" fill="#F6FAFD" p-id="3689"></path><path d="M533.266146 432.886756a24.490667 17.6 44.98 1 0 24.881468-24.898845 24.490667 17.6 44.98 1 0-24.881468 24.898845Z" fill="#F6FAFD" p-id="3690"></path><path d="M342.060306 288.002923a12.245333 8.810667 44.98 1 0 12.455814-12.464513 12.245333 8.810667 44.98 1 0-12.455814 12.464513Z" fill="#F6FAFD" p-id="3691"></path><path d="M214.054053 543.987833a12.245333 8.810667 44.98 1 0 12.455814-12.464513 12.245333 8.810667 44.98 1 0-12.455814 12.464513Z" fill="#F6FAFD" p-id="3692"></path><path d="M384.711883 757.34251a12.245333 8.810667 44.98 1 0 12.455814-12.464513 12.245333 8.810667 44.98 1 0-12.455814 12.464513Z" fill="#F6FAFD" p-id="3693"></path><path d="M662.054053 799.987833a12.245333 8.810667 44.98 1 0 12.455814-12.464513 12.245333 8.810667 44.98 1 0-12.455814 12.464513Z" fill="#F6FAFD" p-id="3694"></path><path d="M854.069143 629.314913a12.245333 8.810667 44.98 1 0 12.455814-12.464513 12.245333 8.810667 44.98 1 0-12.455814 12.464513Z" fill="#F6FAFD" p-id="3695"></path><path d="M599.78688 290.133333l-59.050667 62.08a20.864 20.864 0 0 0-4.949333 9.813334 124.373333 124.373333 0 0 0-68.864 36.906666c-48.021333 50.538667-128.96 102.058667-146.922667 102.122667a21.333333 21.333333 0 0 0-15.466666 36.032C385.429547 622.122667 461.397547 640 510.89088 640a183.466667 183.466667 0 0 0 134.592-56.405333 132.266667 132.266667 0 0 0 34.837333-72.277334 20.821333 20.821333 0 0 0 9.450667-5.397333L748.800213 443.733333a21.333333 21.333333 0 0 0 0-29.397333l-0.789333-0.832 251.733333-264.96a90.048 90.048 0 0 0 0-122.624 81.792 81.792 0 0 0-119.466666 0l-22.186667 23.466667 30.933333 29.397333 22.186667-23.466667a40.042667 40.042667 0 0 1 57.6 0 46.933333 46.933333 0 0 1 0 63.850667L718.592213 382.549333l-59.136-62.229333 189.013334-198.954667-30.933334-29.397333-187.733333 197.525333a21.909333 21.909333 0 0 0-30.016 0.64zM360.021547 531.413333a513.450667 513.450667 0 0 0 88.277333-58.730666 11.797333 11.797333 0 0 1 1.365333 2.005333 51.498667 51.498667 0 0 1 2.133334 21.226667 68.565333 68.565333 0 0 0 1.408 21.333333 57.152 57.152 0 0 0 10.218666 20.181333 92.352 92.352 0 0 0 44.096 31.658667 160 160 0 0 0 45.738667 6.4c4.8 0.170667 9.6 0.341333 14.357333 0.704a92.864 92.864 0 0 1 15.445334 2.56 145.536 145.536 0 0 1-72.170667 18.581333c-36.288 0-90.261333-12.117333-150.869333-65.92z m258.901333 17.066667a101.226667 101.226667 0 0 0-48.085333-14.784c-5.312-0.405333-10.666667-0.618667-16.064-0.810667a124.394667 124.394667 0 0 1-33.813334-4.266666 49.066667 49.066667 0 0 1-23.466666-16.896 16.533333 16.533333 0 0 1-2.965334-5.162667 38.613333 38.613333 0 0 1-0.106666-8.533333l0.128-2.410667a86.4 86.4 0 0 0-5.674667-37.909333 55.466667 55.466667 0 0 0-8.064-12.8c6.4-5.888 12.309333-11.562667 17.066667-16.618667a79.594667 79.594667 0 0 1 63.573333-24.853333l77.162667 81.216a90.816 90.816 0 0 1-19.690667 63.744z m55.466667-88.149333l-88.746667-93.397334 29.610667-31.168L704.000213 429.056z" p-id="3696"></path><path d="M512.000213 42.666667c82.346667 0 149.333333 47.850667 149.333334 106.666666v21.333334h42.666666V149.333333c0-82.346667-86.144-149.333333-192-149.333333C331.49888 0 167.78688 99.776 74.09088 266.88l37.205333 20.885333C197.333547 134.4 347.136213 42.666667 512.000213 42.666667zM90.624213 328.768l-38.890666-17.536a621.653333 621.653333 0 0 0-17.813334 44.330667l40.213334 14.229333c4.928-13.866667 10.453333-27.669333 16.490666-41.024zM886.50688 408.917333l-23.68 35.498667A269.653333 269.653333 0 0 1 981.333547 661.333333c0 176.448-191.402667 320-426.666667 320-282.304 0-512-191.402667-512-426.666666a556.8 556.8 0 0 1 18.730667-143.808l-41.237334-11.029334A600.597333 600.597333 0 0 0 0.000213 554.666667c0 258.794667 248.832 469.333333 554.666667 469.333333 258.794667 0 469.333333-162.688 469.333333-362.666667a309.034667 309.034667 0 0 0-137.493333-252.416z" p-id="3697"></path><path d="M808.021547 400.64l26.666666-33.301333 31.936 25.557333-26.666666 33.322667zM832.000213 746.666667a106.666667 106.666667 0 1 0-106.666666-106.666667 106.794667 106.794667 0 0 0 106.666666 106.666667z m0-170.666667a64 64 0 1 1-64 64 64 64 0 0 1 64-64zM362.66688 874.666667a106.666667 106.666667 0 1 0-106.666667-106.666667 106.794667 106.794667 0 0 0 106.666667 106.666667z m0-170.666667a64 64 0 1 1-64 64 64 64 0 0 1 64-64zM640.000213 704a106.666667 106.666667 0 1 0 106.666667 106.666667 106.794667 106.794667 0 0 0-106.666667-106.666667z m0 170.666667a64 64 0 1 1 64-64 64 64 0 0 1-64 64zM85.333547 554.666667a106.666667 106.666667 0 1 0 106.666666-106.666667 106.794667 106.794667 0 0 0-106.666666 106.666667z m170.666666 0a64 64 0 1 1-64-64 64 64 0 0 1 64 64zM426.66688 298.666667a106.666667 106.666667 0 1 0-106.666667 106.666666 106.794667 106.794667 0 0 0 106.666667-106.666666z m-170.666667 0a64 64 0 1 1 64 64 64 64 0 0 1-64-64zM536.42688 242.154667a35.882667 35.882667 0 0 1 32.917333-5.717334 61.098667 61.098667 0 0 1 35.072 30.058667l37.226667-20.842667a103.146667 103.146667 0 0 0-58.986667-49.749333 78.592 78.592 0 0 0-71.274666 11.690667A111.36 111.36 0 0 0 469.333547 300.074667a89.749333 89.749333 0 0 0 21.952 54.314666l33.642666-26.218666A50.752 50.752 0 0 1 512.000213 300.074667a69.568 69.568 0 0 1 24.426667-57.92z" p-id="3698"></path></svg>