<?xml version="1.0" standalone="no"?><!DOCTYPE svg PUBLIC "-//W3C//DTD SVG 1.1//EN" "http://www.w3.org/Graphics/SVG/1.1/DTD/svg11.dtd"><svg t="1719904153305" class="icon" viewBox="0 0 1024 1024" version="1.1" xmlns="http://www.w3.org/2000/svg" p-id="2427" xmlns:xlink="http://www.w3.org/1999/xlink" width="200" height="200"><path d="M554.666667 298.666667h-85.333334v298.666666h256v-85.333333h-170.666666z" fill="#09121F" p-id="2428"></path><path d="M810.666667 217.6c-166.4-166.4-435.2-166.4-601.6 0-136.533333 136.533333-162.133333 345.6-72.533334 512L85.333333 938.666667l209.066667-51.2c162.133333 93.866667 375.466667 72.533333 516.266667-68.266667 166.4-166.4 166.4-435.2 0-601.6z m-59.733334 541.866667c-119.466667 119.466667-302.933333 132.266667-435.2 38.4l-102.4 25.6-25.6 8.533333 4.266667-25.6 4.266667-25.6 4.266666-21.333333 12.8-64c-81.066667-132.266667-64-307.2 51.2-418.133334 132.266667-132.266667 349.866667-132.266667 482.133334 0s140.8 349.866667 4.266666 482.133334z" fill="#09121F" p-id="2429"></path></svg>