<?xml version="1.0" standalone="no"?><!DOCTYPE svg PUBLIC "-//W3C//DTD SVG 1.1//EN" "http://www.w3.org/Graphics/SVG/1.1/DTD/svg11.dtd"><svg t="1719232176278" class="icon" viewBox="0 0 1024 1024" version="1.1" xmlns="http://www.w3.org/2000/svg" p-id="4904" xmlns:xlink="http://www.w3.org/1999/xlink" width="200" height="200"><path d="M311.467 490.667c81.066 0 145.066-64 145.066-145.067V192c0-81.067-64-145.067-145.066-145.067S166.4 110.933 166.4 192v157.867c0 76.8 64 140.8 145.067 140.8z m64-145.067c0 34.133-29.867 64-64 64s-64-25.6-64-64V192c0-38.4 29.866-64 64-64s64 29.867 64 64v153.6z" p-id="4905"></path><path d="M584.533 388.267L503.467 371.2 499.2 384a202.03 202.03 0 0 1-153.6 153.6C243.2 558.933 140.8 490.667 119.467 384l-4.267-12.8-76.8 17.067 4.267 12.8c25.6 128 140.8 221.866 268.8 221.866s243.2-93.866 268.8-221.866l4.266-12.8zM977.067 627.2v-81.067H789.333v-64h-81.066v64H520.533V627.2h302.934c-17.067 46.933-42.667 89.6-76.8 128-21.334-25.6-38.4-51.2-55.467-81.067l-4.267-4.266h-89.6l4.267 12.8c21.333 46.933 51.2 89.6 85.333 128C640 849.067 588.8 878.933 529.067 896l-8.534 4.267 21.334 76.8 8.533-4.267c68.267-21.333 136.533-59.733 192-106.667 55.467 46.934 119.467 85.334 192 106.667l8.533 4.267 21.334-76.8-8.534-4.267C896 878.933 844.8 849.067 797.867 810.667 844.8 755.2 878.933 691.2 904.533 622.933h72.534zM802.133 290.133V435.2H896V290.133c0-81.066-64-145.066-145.067-145.066H567.467v93.866h183.466c25.6-4.266 51.2 21.334 51.2 51.2zM256 806.4V661.333h-93.867V806.4c0 81.067 64 145.067 145.067 145.067h183.467V857.6h-179.2C281.6 857.6 256 836.267 256 806.4z" p-id="4906"></path></svg>