<?xml version="1.0" standalone="no"?><!DOCTYPE svg PUBLIC "-//W3C//DTD SVG 1.1//EN" "http://www.w3.org/Graphics/SVG/1.1/DTD/svg11.dtd"><svg t="1719730111053" class="icon" viewBox="0 0 1024 1024" version="1.1" xmlns="http://www.w3.org/2000/svg" p-id="2745" xmlns:xlink="http://www.w3.org/1999/xlink" width="200" height="200"><path d="M923.008 123.104c-53.856 111.872 1.376 453.216-224.96 667.936-166.976 147.2-392.16 139.52-604.8 105.504-9.056-221.984 0.736-483.232 159.136-637.536 225.408-215.04 525.088-121.12 670.624-135.904z" fill="#FFFFFF" p-id="2746"></path><path d="M923.008 123.104c-53.856 111.872 1.376 453.216-224.96 667.936-166.976 147.2-392.16 139.52-604.8 105.504l-0.96-25.28c-7.136-216.256 7.68-463.776 160.096-612.256 225.408-215.04 525.088-121.12 670.624-135.904zM875.84 163.648l1.312-6.944-16.128-0.32c-8.256-0.32-17.056-0.672-26.56-1.184l-100.992-6.08a1209.6 1209.6 0 0 0-8.576-0.416c-44.864-2.112-83.072-2.24-120.16 0-132.672 8-239.968 47.328-330.048 133.248-118.528 115.456-157.28 292.288-151.104 563.136l0.672 23.808 4.864 0.736c243.52 35.296 410.56 13.184 538.944-94.912l8-6.88c31.36-29.76 57.92-63.04 80.32-99.84 57.6-94.72 82.88-195.84 100.64-353.184l11.552-100.256a960.32 960.32 0 0 1 7.264-50.88z" fill="#5D6D7E" p-id="2747"></path><path d="M787.616 235.456a16 16 0 0 1-11.68 19.392c-176.96 43.872-320.512 144.768-430.848 303.232l-0.736-0.32c127.296 54.496 242.784 63.936 347.072 28.8l11.104-3.936a16 16 0 1 1 11.136 30.016c-115.456 42.752-243.072 34.048-382.176-25.6l-4.512-1.92c-44.384 68.576-83.008 147.168-115.872 235.744a16 16 0 1 1-30.016-11.104c36.16-97.376 79.2-183.2 129.184-257.44l44-251.744a16 16 0 0 1 15.616-13.28l2.88 0.256a16 16 0 0 1 13.248 15.648l-0.224 2.88-32.832 187.776c109.728-138.464 248.192-228.64 415.296-270.08a16 16 0 0 1 19.36 11.68z" fill="#A7B3C2" p-id="2748"></path></svg>